<mxfile host="Electron" modified="2023-11-10T12:25:44.241Z" agent="Mozilla/5.0 (Windows NT 10.0; Win64; x64) AppleWebKit/537.36 (KHTML, like Gecko) draw.io/21.6.8 Chrome/114.0.5735.289 Electron/25.5.0 Safari/537.36" etag="KhVS0qRUH3kYFDUhNAW6" version="21.6.8" type="device">
  <diagram id="C5RBs43oDa-KdzZeNtuy" name="Page-1">
    <mxGraphModel dx="1091" dy="638" grid="1" gridSize="10" guides="1" tooltips="1" connect="1" arrows="1" fold="1" page="1" pageScale="1" pageWidth="827" pageHeight="1169" math="0" shadow="0">
      <root>
        <mxCell id="WIyWlLk6GJQsqaUBKTNV-0" />
        <mxCell id="WIyWlLk6GJQsqaUBKTNV-1" parent="WIyWlLk6GJQsqaUBKTNV-0" />
        <mxCell id="sKyEI40k2Y5IoA3rtuJI-8" value="" style="swimlane;startSize=0;fontStyle=0" vertex="1" parent="WIyWlLk6GJQsqaUBKTNV-1">
          <mxGeometry x="210" y="30" width="1000" height="490" as="geometry" />
        </mxCell>
        <mxCell id="sKyEI40k2Y5IoA3rtuJI-10" value="&lt;font style=&quot;font-size: 18px;&quot;&gt;Question&lt;/font&gt;" style="text;html=1;strokeColor=none;fillColor=none;align=center;verticalAlign=middle;whiteSpace=wrap;rounded=0;labelBorderColor=none;fontStyle=1" vertex="1" parent="sKyEI40k2Y5IoA3rtuJI-8">
          <mxGeometry x="460" width="80" height="40" as="geometry" />
        </mxCell>
        <mxCell id="sKyEI40k2Y5IoA3rtuJI-105" style="edgeStyle=orthogonalEdgeStyle;rounded=0;orthogonalLoop=1;jettySize=auto;html=1;entryX=0;entryY=0.5;entryDx=0;entryDy=0;" edge="1" parent="sKyEI40k2Y5IoA3rtuJI-8" source="sKyEI40k2Y5IoA3rtuJI-104" target="sKyEI40k2Y5IoA3rtuJI-4">
          <mxGeometry relative="1" as="geometry" />
        </mxCell>
        <mxCell id="sKyEI40k2Y5IoA3rtuJI-104" value="SessionManagerService" style="rounded=1;whiteSpace=wrap;html=1;" vertex="1" parent="sKyEI40k2Y5IoA3rtuJI-8">
          <mxGeometry x="10" y="172.5" width="150" height="65" as="geometry" />
        </mxCell>
        <mxCell id="sKyEI40k2Y5IoA3rtuJI-121" style="edgeStyle=orthogonalEdgeStyle;rounded=0;orthogonalLoop=1;jettySize=auto;html=1;entryX=0.5;entryY=0;entryDx=0;entryDy=0;exitX=0.75;exitY=1;exitDx=0;exitDy=0;" edge="1" parent="sKyEI40k2Y5IoA3rtuJI-8" source="sKyEI40k2Y5IoA3rtuJI-1" target="sKyEI40k2Y5IoA3rtuJI-120">
          <mxGeometry relative="1" as="geometry" />
        </mxCell>
        <mxCell id="sKyEI40k2Y5IoA3rtuJI-124" value="connects to" style="edgeLabel;html=1;align=center;verticalAlign=middle;resizable=0;points=[];" vertex="1" connectable="0" parent="sKyEI40k2Y5IoA3rtuJI-121">
          <mxGeometry x="0.1811" y="-3" relative="1" as="geometry">
            <mxPoint as="offset" />
          </mxGeometry>
        </mxCell>
        <mxCell id="sKyEI40k2Y5IoA3rtuJI-1" value="Controller" style="rounded=1;whiteSpace=wrap;html=1;" vertex="1" parent="sKyEI40k2Y5IoA3rtuJI-8">
          <mxGeometry x="468" y="175" width="120" height="60" as="geometry" />
        </mxCell>
        <mxCell id="sKyEI40k2Y5IoA3rtuJI-32" style="edgeStyle=orthogonalEdgeStyle;rounded=0;orthogonalLoop=1;jettySize=auto;html=1;entryX=0.25;entryY=1;entryDx=0;entryDy=0;exitX=0.25;exitY=0;exitDx=0;exitDy=0;" edge="1" parent="sKyEI40k2Y5IoA3rtuJI-8" source="sKyEI40k2Y5IoA3rtuJI-4" target="sKyEI40k2Y5IoA3rtuJI-2">
          <mxGeometry relative="1" as="geometry" />
        </mxCell>
        <mxCell id="sKyEI40k2Y5IoA3rtuJI-33" value="Updates" style="edgeLabel;html=1;align=center;verticalAlign=middle;resizable=0;points=[];" vertex="1" connectable="0" parent="sKyEI40k2Y5IoA3rtuJI-32">
          <mxGeometry x="0.2201" y="1" relative="1" as="geometry">
            <mxPoint y="-1" as="offset" />
          </mxGeometry>
        </mxCell>
        <mxCell id="sKyEI40k2Y5IoA3rtuJI-7" value="" style="group" vertex="1" connectable="0" parent="sKyEI40k2Y5IoA3rtuJI-8">
          <mxGeometry x="218" y="35" width="120" height="60" as="geometry" />
        </mxCell>
        <mxCell id="sKyEI40k2Y5IoA3rtuJI-2" value="Model" style="rounded=1;whiteSpace=wrap;html=1;" vertex="1" parent="sKyEI40k2Y5IoA3rtuJI-7">
          <mxGeometry width="120" height="60" as="geometry" />
        </mxCell>
        <mxCell id="sKyEI40k2Y5IoA3rtuJI-6" value="" style="shape=image;imageAspect=0;aspect=fixed;verticalLabelPosition=bottom;verticalAlign=top;image=https://www.strongdm.com/hubfs/21126185/Technology%20Images/603c5eb831820c3ce6a8f057_603a1586fa052d17fc2a6929_MongoDBAtlas.png;" vertex="1" parent="sKyEI40k2Y5IoA3rtuJI-7">
          <mxGeometry x="80" y="5" width="40" height="40" as="geometry" />
        </mxCell>
        <mxCell id="sKyEI40k2Y5IoA3rtuJI-113" style="edgeStyle=orthogonalEdgeStyle;rounded=0;orthogonalLoop=1;jettySize=auto;html=1;" edge="1" parent="sKyEI40k2Y5IoA3rtuJI-8" source="sKyEI40k2Y5IoA3rtuJI-11" target="sKyEI40k2Y5IoA3rtuJI-2">
          <mxGeometry relative="1" as="geometry" />
        </mxCell>
        <mxCell id="sKyEI40k2Y5IoA3rtuJI-11" value="SessionModel" style="rounded=1;whiteSpace=wrap;html=1;" vertex="1" parent="sKyEI40k2Y5IoA3rtuJI-8">
          <mxGeometry x="25" y="35" width="120" height="60" as="geometry" />
        </mxCell>
        <mxCell id="sKyEI40k2Y5IoA3rtuJI-111" value="" style="edgeStyle=orthogonalEdgeStyle;rounded=0;orthogonalLoop=1;jettySize=auto;html=1;" edge="1" parent="sKyEI40k2Y5IoA3rtuJI-8" source="sKyEI40k2Y5IoA3rtuJI-14" target="sKyEI40k2Y5IoA3rtuJI-1">
          <mxGeometry relative="1" as="geometry" />
        </mxCell>
        <mxCell id="sKyEI40k2Y5IoA3rtuJI-14" value="QuestionController" style="rounded=1;whiteSpace=wrap;html=1;" vertex="1" parent="sKyEI40k2Y5IoA3rtuJI-8">
          <mxGeometry x="468" y="60" width="120" height="60" as="geometry" />
        </mxCell>
        <mxCell id="sKyEI40k2Y5IoA3rtuJI-109" style="edgeStyle=orthogonalEdgeStyle;rounded=0;orthogonalLoop=1;jettySize=auto;html=1;entryX=1;entryY=0.5;entryDx=0;entryDy=0;" edge="1" parent="sKyEI40k2Y5IoA3rtuJI-8" source="sKyEI40k2Y5IoA3rtuJI-5" target="sKyEI40k2Y5IoA3rtuJI-1">
          <mxGeometry relative="1" as="geometry" />
        </mxCell>
        <mxCell id="sKyEI40k2Y5IoA3rtuJI-5" value="Utils" style="rounded=1;whiteSpace=wrap;html=1;" vertex="1" parent="sKyEI40k2Y5IoA3rtuJI-8">
          <mxGeometry x="680" y="175" width="120" height="60" as="geometry" />
        </mxCell>
        <mxCell id="sKyEI40k2Y5IoA3rtuJI-34" value="" style="group" vertex="1" connectable="0" parent="sKyEI40k2Y5IoA3rtuJI-8">
          <mxGeometry x="218" y="175" width="120" height="60" as="geometry" />
        </mxCell>
        <mxCell id="sKyEI40k2Y5IoA3rtuJI-4" value="Service" style="rounded=1;whiteSpace=wrap;html=1;" vertex="1" parent="sKyEI40k2Y5IoA3rtuJI-34">
          <mxGeometry width="120" height="60" as="geometry" />
        </mxCell>
        <mxCell id="sKyEI40k2Y5IoA3rtuJI-31" value="" style="group" vertex="1" connectable="0" parent="sKyEI40k2Y5IoA3rtuJI-34">
          <mxGeometry x="75" y="5" width="45" height="50" as="geometry" />
        </mxCell>
        <mxCell id="sKyEI40k2Y5IoA3rtuJI-28" value="" style="shape=image;imageAspect=0;aspect=fixed;verticalLabelPosition=bottom;verticalAlign=top;image=https://automerge.org/img/automerge.png;" vertex="1" parent="sKyEI40k2Y5IoA3rtuJI-31">
          <mxGeometry x="7.5" y="20" width="30" height="30" as="geometry" />
        </mxCell>
        <mxCell id="sKyEI40k2Y5IoA3rtuJI-29" value="Automerge" style="text;html=1;strokeColor=none;fillColor=none;align=center;verticalAlign=middle;whiteSpace=wrap;rounded=0;fontFamily=Times New Roman;fontSize=8;" vertex="1" parent="sKyEI40k2Y5IoA3rtuJI-31">
          <mxGeometry width="45" height="20" as="geometry" />
        </mxCell>
        <mxCell id="sKyEI40k2Y5IoA3rtuJI-35" style="edgeStyle=orthogonalEdgeStyle;rounded=0;orthogonalLoop=1;jettySize=auto;html=1;entryX=0.75;entryY=0;entryDx=0;entryDy=0;exitX=0.75;exitY=1;exitDx=0;exitDy=0;" edge="1" parent="sKyEI40k2Y5IoA3rtuJI-8" source="sKyEI40k2Y5IoA3rtuJI-2" target="sKyEI40k2Y5IoA3rtuJI-4">
          <mxGeometry relative="1" as="geometry" />
        </mxCell>
        <mxCell id="sKyEI40k2Y5IoA3rtuJI-36" value="Retrieved by" style="edgeLabel;html=1;align=center;verticalAlign=middle;resizable=0;points=[];" vertex="1" connectable="0" parent="sKyEI40k2Y5IoA3rtuJI-35">
          <mxGeometry x="0.1962" y="1" relative="1" as="geometry">
            <mxPoint y="2" as="offset" />
          </mxGeometry>
        </mxCell>
        <mxCell id="sKyEI40k2Y5IoA3rtuJI-39" style="edgeStyle=orthogonalEdgeStyle;rounded=0;orthogonalLoop=1;jettySize=auto;html=1;" edge="1" parent="sKyEI40k2Y5IoA3rtuJI-8" source="sKyEI40k2Y5IoA3rtuJI-4" target="sKyEI40k2Y5IoA3rtuJI-1">
          <mxGeometry relative="1" as="geometry" />
        </mxCell>
        <mxCell id="sKyEI40k2Y5IoA3rtuJI-40" value="sessionManager" style="edgeLabel;html=1;align=center;verticalAlign=middle;resizable=0;points=[];" vertex="1" connectable="0" parent="sKyEI40k2Y5IoA3rtuJI-39">
          <mxGeometry x="-0.148" y="-1" relative="1" as="geometry">
            <mxPoint as="offset" />
          </mxGeometry>
        </mxCell>
        <mxCell id="sKyEI40k2Y5IoA3rtuJI-101" style="edgeStyle=orthogonalEdgeStyle;rounded=0;orthogonalLoop=1;jettySize=auto;html=1;entryX=1;entryY=0.5;entryDx=0;entryDy=0;" edge="1" parent="sKyEI40k2Y5IoA3rtuJI-8" source="sKyEI40k2Y5IoA3rtuJI-68" target="sKyEI40k2Y5IoA3rtuJI-5">
          <mxGeometry relative="1" as="geometry" />
        </mxCell>
        <mxCell id="sKyEI40k2Y5IoA3rtuJI-100" style="edgeStyle=orthogonalEdgeStyle;rounded=0;orthogonalLoop=1;jettySize=auto;html=1;entryX=0.5;entryY=0;entryDx=0;entryDy=0;" edge="1" parent="sKyEI40k2Y5IoA3rtuJI-8" source="sKyEI40k2Y5IoA3rtuJI-97" target="sKyEI40k2Y5IoA3rtuJI-5">
          <mxGeometry relative="1" as="geometry" />
        </mxCell>
        <mxCell id="sKyEI40k2Y5IoA3rtuJI-97" value="Logger" style="rounded=1;whiteSpace=wrap;html=1;" vertex="1" parent="sKyEI40k2Y5IoA3rtuJI-8">
          <mxGeometry x="680" y="60" width="120" height="60" as="geometry" />
        </mxCell>
        <mxCell id="sKyEI40k2Y5IoA3rtuJI-68" value="Config" style="rounded=1;whiteSpace=wrap;html=1;" vertex="1" parent="sKyEI40k2Y5IoA3rtuJI-8">
          <mxGeometry x="860" y="175" width="120" height="60" as="geometry" />
        </mxCell>
        <mxCell id="sKyEI40k2Y5IoA3rtuJI-115" style="edgeStyle=orthogonalEdgeStyle;rounded=0;orthogonalLoop=1;jettySize=auto;html=1;entryX=0.25;entryY=1;entryDx=0;entryDy=0;" edge="1" parent="sKyEI40k2Y5IoA3rtuJI-8" source="sKyEI40k2Y5IoA3rtuJI-3" target="sKyEI40k2Y5IoA3rtuJI-1">
          <mxGeometry relative="1" as="geometry" />
        </mxCell>
        <mxCell id="sKyEI40k2Y5IoA3rtuJI-118" value="Route calls to" style="edgeLabel;html=1;align=center;verticalAlign=middle;resizable=0;points=[];" vertex="1" connectable="0" parent="sKyEI40k2Y5IoA3rtuJI-115">
          <mxGeometry x="0.1372" y="-3" relative="1" as="geometry">
            <mxPoint as="offset" />
          </mxGeometry>
        </mxCell>
        <mxCell id="sKyEI40k2Y5IoA3rtuJI-3" value="Route" style="rounded=1;whiteSpace=wrap;html=1;" vertex="1" parent="sKyEI40k2Y5IoA3rtuJI-8">
          <mxGeometry x="348" y="310" width="120" height="60" as="geometry" />
        </mxCell>
        <mxCell id="sKyEI40k2Y5IoA3rtuJI-116" style="edgeStyle=orthogonalEdgeStyle;rounded=0;orthogonalLoop=1;jettySize=auto;html=1;entryX=0;entryY=0.5;entryDx=0;entryDy=0;" edge="1" parent="sKyEI40k2Y5IoA3rtuJI-8" source="sKyEI40k2Y5IoA3rtuJI-16" target="sKyEI40k2Y5IoA3rtuJI-3">
          <mxGeometry relative="1" as="geometry" />
        </mxCell>
        <mxCell id="sKyEI40k2Y5IoA3rtuJI-16" value="SessionRouter" style="rounded=1;whiteSpace=wrap;html=1;" vertex="1" parent="sKyEI40k2Y5IoA3rtuJI-8">
          <mxGeometry x="156" y="260" width="120" height="60" as="geometry" />
        </mxCell>
        <mxCell id="sKyEI40k2Y5IoA3rtuJI-117" style="edgeStyle=orthogonalEdgeStyle;rounded=0;orthogonalLoop=1;jettySize=auto;html=1;entryX=0;entryY=0.5;entryDx=0;entryDy=0;" edge="1" parent="sKyEI40k2Y5IoA3rtuJI-8" source="sKyEI40k2Y5IoA3rtuJI-17" target="sKyEI40k2Y5IoA3rtuJI-3">
          <mxGeometry relative="1" as="geometry" />
        </mxCell>
        <mxCell id="sKyEI40k2Y5IoA3rtuJI-17" value="TestRouter" style="rounded=1;whiteSpace=wrap;html=1;" vertex="1" parent="sKyEI40k2Y5IoA3rtuJI-8">
          <mxGeometry x="156" y="340" width="120" height="60" as="geometry" />
        </mxCell>
        <mxCell id="sKyEI40k2Y5IoA3rtuJI-123" value="" style="group" vertex="1" connectable="0" parent="sKyEI40k2Y5IoA3rtuJI-8">
          <mxGeometry x="520" y="310" width="180" height="60" as="geometry" />
        </mxCell>
        <mxCell id="sKyEI40k2Y5IoA3rtuJI-120" value="WebSocketServer" style="rounded=1;whiteSpace=wrap;html=1;" vertex="1" parent="sKyEI40k2Y5IoA3rtuJI-123">
          <mxGeometry width="180" height="60" as="geometry" />
        </mxCell>
        <mxCell id="sKyEI40k2Y5IoA3rtuJI-122" value="" style="shape=image;imageAspect=0;aspect=fixed;verticalLabelPosition=bottom;verticalAlign=top;image=https://gitlab.com/uploads/-/system/project/avatar/24087336/django.png;" vertex="1" parent="sKyEI40k2Y5IoA3rtuJI-123">
          <mxGeometry x="140" y="15" width="30" height="30" as="geometry" />
        </mxCell>
        <mxCell id="sKyEI40k2Y5IoA3rtuJI-125" value="Frontend" style="rounded=1;whiteSpace=wrap;html=1;" vertex="1" parent="WIyWlLk6GJQsqaUBKTNV-1">
          <mxGeometry x="650" y="540" width="120" height="60" as="geometry" />
        </mxCell>
        <mxCell id="sKyEI40k2Y5IoA3rtuJI-126" style="edgeStyle=orthogonalEdgeStyle;rounded=0;orthogonalLoop=1;jettySize=auto;html=1;entryX=0.75;entryY=0;entryDx=0;entryDy=0;dashed=1;dashPattern=1 1;strokeWidth=2;" edge="1" parent="WIyWlLk6GJQsqaUBKTNV-1" source="sKyEI40k2Y5IoA3rtuJI-120" target="sKyEI40k2Y5IoA3rtuJI-125">
          <mxGeometry relative="1" as="geometry" />
        </mxCell>
        <mxCell id="sKyEI40k2Y5IoA3rtuJI-128" value="sends traffic" style="edgeLabel;html=1;align=center;verticalAlign=middle;resizable=0;points=[];" vertex="1" connectable="0" parent="sKyEI40k2Y5IoA3rtuJI-126">
          <mxGeometry x="-0.0274" y="2" relative="1" as="geometry">
            <mxPoint x="24" as="offset" />
          </mxGeometry>
        </mxCell>
        <mxCell id="sKyEI40k2Y5IoA3rtuJI-127" style="edgeStyle=orthogonalEdgeStyle;rounded=0;orthogonalLoop=1;jettySize=auto;html=1;entryX=0.5;entryY=1;entryDx=0;entryDy=0;exitX=0.25;exitY=0;exitDx=0;exitDy=0;dashed=1;dashPattern=1 1;strokeWidth=2;" edge="1" parent="WIyWlLk6GJQsqaUBKTNV-1" source="sKyEI40k2Y5IoA3rtuJI-125" target="sKyEI40k2Y5IoA3rtuJI-3">
          <mxGeometry relative="1" as="geometry" />
        </mxCell>
        <mxCell id="sKyEI40k2Y5IoA3rtuJI-129" value="calls API" style="edgeLabel;html=1;align=center;verticalAlign=middle;resizable=0;points=[];" vertex="1" connectable="0" parent="sKyEI40k2Y5IoA3rtuJI-127">
          <mxGeometry x="0.305" relative="1" as="geometry">
            <mxPoint x="7" as="offset" />
          </mxGeometry>
        </mxCell>
      </root>
    </mxGraphModel>
  </diagram>
</mxfile>
